<mxfile host="app.diagrams.net" modified="2024-08-07T01:43:12.898Z" agent="Mozilla/5.0 (Macintosh; Intel Mac OS X 10_15_7) AppleWebKit/537.36 (KHTML, like Gecko) Chrome/127.0.0.0 Safari/537.36" version="24.4.13" etag="SevtGU4u7_dIMTyXSJiv" type="github">
  <diagram name="Page-1" id="fZDiwvPeSgvQYQ-qHkVj">
    <mxGraphModel>
      <root>
        <mxCell id="0" />
        <mxCell id="1" parent="0" />
      </root>
    </mxGraphModel>
  </diagram>
</mxfile>
